<?xml version="1.0" encoding="UTF-8"?>
<svg id="Camada_1" data-name="Camada 1" xmlns="http://www.w3.org/2000/svg" viewBox="0 0 1080 1080">
  <defs>
    <style>
      .cls-1 {
        fill: #36173d;
      }
    </style>
  </defs>
  <path class="cls-1" d="M978.99,955.36l-179.02-348.4c-2.86-5.56-9.3-8.32-15.27-6.46-27.33,8.51-56.47-.02-73.99-22.02-19.78-24.83-19.34-60.26.05-84.47,18.11-22.61,47.46-30.57,74.59-21.78,6.03,1.95,12.59-.79,15.47-6.44l174.38-341.85c7.78-15.26-8.7-31.46-23.82-23.43l-344.62,182.99c-5.5,2.92-8.21,9.37-6.28,15.3,9.05,27.84.16,57.13-21.89,74.67-24.48,19.48-58.9,19.49-83.12.85-22.78-17.52-31.85-46.15-23.4-74.1,1.79-5.93-1.01-12.28-6.51-15.11l-104.85-53.93c-5.84-1.82-10.04-5.16-15.8-8.13l-202.89-104.68c-15.16-7.82-31.42,8.44-23.6,23.6l104.69,202.84,8.84,16.98,53.01,103.23c2.87,5.59,9.36,8.37,15.34,6.45,27.88-8.93,56.83.22,74.42,22.61,19.33,24.6,18.97,59.9-.88,84.28-17.79,21.84-47.1,30.24-74.44,21.19-5.96-1.97-12.46.7-15.4,6.24l-183.53,345.52c-8.03,15.13,8.17,31.61,23.43,23.82l341.82-174.36c5.61-2.86,8.41-9.38,6.48-15.37-9.1-28.22-.2-57.82,23.11-75.58,24.65-18.78,59.8-18.62,84.67,2.28,20.53,17.26,28.95,45.72,20.55,72.52-1.88,5.99.86,12.46,6.44,15.33l348.45,179c15.15,7.78,31.37-8.44,23.59-23.59ZM551.11,588.52l-11.06,29.57c-5.03-11.35-7.13-18.08-10.28-27.25-6.77-19.7-20.95-33.89-40.66-40.73-9.39-3.26-16.88-5.12-27.09-10.61l27.17-9.75c20.13-7.23,34.41-21.81,41.14-42.08,2.92-8.79,4.47-15.26,10.13-25.76l10.28,28.56c6.48,18,19.69,31.75,37.74,38.34l29.52,10.77c-27.96,13.19-53.64,13.54-66.88,48.94Z"/>
</svg>