<?xml version="1.0" encoding="UTF-8"?>
<svg id="Camada_1" data-name="Camada 1" xmlns="http://www.w3.org/2000/svg" viewBox="0 0 1842.26 855.19">
  <defs>
    <style>
      .cls-1 {
        fill: #f4bdbd;
      }

      .cls-2 {
        fill: #36173d;
      }
    </style>
  </defs>
  <path class="cls-2" d="M549.07,395.71c-2.31-2.38-2.56-4.8-.14-7.33l128.61-92.8c2.53-2.62,3.29-6.43,2.08-9.59-.94-2.46-4.37-5.94-7.98-5.94l-77.89-.07c-6.28,0-11.64.77-16.37,5.29l-111.12,86.54-.29-80.11c-.02-6.45-3.83-11.07-10.34-12.09l-66.91-.08c-7.47,0-13.35,4.1-13.35,12.28v265.73c0,6.87,4.83,11.96,11.55,11.97l66.2.12c6.66.01,12.79-3.59,12.79-11.05l.09-112.61c8.08,7.18,14.47,13.74,21.72,21.13l93.24,95.17c4.73,4.83,9.1,7.31,16,7.31l88.24-.07c3.52,0,7.15-3.27,8.01-5.67,1.14-3.17.63-7.49-1.99-10.14l-142.12-158.02Z"/>
  <path class="cls-2" d="M1455.1,505.41s-.08,0-.12,0c-10,0-13.46-3.08-13.46-14.61v-98.42c0-77.28-34.99-113.03-114.57-113.03-70.98,0-117.08,32.35-123.93,86.8-.44,3.52,2.33,6.63,5.88,6.63h68.57c2.69,0,5.08-1.8,5.72-4.41,4.22-17.02,18.72-27.5,41.06-27.5,25.37,0,39.6,13.84,39.6,38.45v5.85c0,5.16-3.97,9.46-9.11,9.87l-53.17,4.27c-80.35,6.54-112.26,36.52-112.26,87.66s41.52,82.66,97.27,82.66c39.01,0,69.26-16.74,88.13-42.64.19-.26.49-.42.82-.42.56,0,1.02.46,1.02,1.02v.9c0,27.3,18.45,39.98,57.67,39.98.12,0,.23,0,.35,0,17.9-.04,32.33-14.67,32.33-32.57v-19.02c0-6.46-5.34-11.55-11.8-11.46ZM1363.86,455.05c0,31.91-24.22,53.83-59.21,53.83-21.15,0-34.6-8.84-34.6-27.68,0-19.99,12.3-28.84,43.83-31.91l48.87-4.51c.6-.06,1.12.42,1.12,1.02v9.26Z"/>
  <path class="cls-2" d="M715.28,557.56c0,7.35,5.42,12.06,12.34,12.06l65.76-.02c8.18,0,12.29-5.49,12.29-12.99v-188.27c0-6.3-5.1-11.41-11.4-11.41h-67.58c-6.3,0-11.41,5.11-11.41,11.41v189.22Z"/>
  <path class="cls-2" d="M805.69,292.45c0-6.74-3.68-13.03-10.98-13.04l-67.95-.07c-6.01,0-11.47,4.92-11.47,11.22v38.79c0,6.3,5.11,11.41,11.41,11.41h67.58c6.3,0,11.41-5.11,11.41-11.41v-36.91Z"/>
  <path class="cls-1" d="M1217.87,617.86l-82.8-161.15c-1.32-2.57-4.3-3.85-7.06-2.99-12.64,3.94-26.12,0-34.22-10.18-9.15-11.48-8.95-27.87.02-39.07,8.38-10.46,21.95-14.14,34.5-10.07,2.79.9,5.82-.37,7.15-2.98l80.65-158.11c3.6-7.06-4.02-14.55-11.02-10.84l-159.4,84.64c-2.55,1.35-3.8,4.34-2.91,7.08,4.19,12.88.07,26.42-10.12,34.54-11.32,9.01-27.24,9.01-38.45.39-10.54-8.1-14.73-21.35-10.82-34.27.83-2.74-.47-5.68-3.01-6.99l-48.5-24.94c-2.7-.84-4.64-2.38-7.31-3.76l-93.84-48.42c-7.01-3.62-14.53,3.9-10.92,10.92l48.42,93.82,4.09,7.86,24.52,47.75c1.33,2.59,4.33,3.87,7.1,2.98,12.89-4.13,26.29.1,34.42,10.46,8.94,11.38,8.77,27.71-.41,38.98-8.23,10.1-21.79,13.99-34.43,9.8-2.75-.91-5.76.32-7.13,2.89l-84.89,159.82c-3.72,7,3.78,14.62,10.84,11.02l158.1-80.65c2.6-1.32,3.89-4.34,3-7.11-4.21-13.05-.09-26.74,10.69-34.96,11.4-8.69,27.66-8.61,39.16,1.06,9.5,7.98,13.39,21.15,9.5,33.54-.87,2.77.4,5.76,2.98,7.09l161.17,82.79c7.01,3.6,14.51-3.9,10.91-10.91ZM1019.96,448.19l-5.12,13.68c-2.33-5.25-3.3-8.36-4.76-12.6-3.13-9.11-9.69-15.67-18.81-18.84-4.34-1.51-7.81-2.37-12.53-4.91l12.57-4.51c9.31-3.34,15.92-10.09,19.03-19.47,1.35-4.06,2.07-7.06,4.68-11.91l4.75,13.21c3,8.33,9.11,14.69,17.46,17.73l13.65,4.98c-12.93,6.1-24.81,6.26-30.94,22.64Z"/>
</svg>